# xmcd
#
# Track frame offsets: 
#        150
#        15005
#        34813
#        52683
#        72260
#        96386
#        112722
#        126069
#        145532
#        158830
#        181385
#        195331
#
# Disc length: 2804 seconds
#
# Revision: 0
# Processed by: cddbd v1.5.2PL0 Copyright (c) Steve Scherf et al.
# Submitted via: ExactAudioCopy v0.95b3
#
DISCID=880af20c
DTITLE=Daniel  - Phoenix   1976-78
DYEAR=1900
DGENRE=
TTITLE0=Get Ready To Rip
TTITLE1=On A Mountain
TTITLE2=Debra
TTITLE3=Real Fine Woman
TTITLE4=Saddened And Alone Again
TTITLE5=Have You Walked In The Sun
TTITLE6=Love Baloons
TTITLE7=Member Of My Tribe
TTITLE8=Sooner Or Later
TTITLE9=It's You Babe
TTITLE10=Sooner Or Later (Alt. Version)
TTITLE11=Debra (Alt. Version)
EXTD=
EXTT0=
EXTT1=
EXTT2=
EXTT3=
EXTT4=
EXTT5=
EXTT6=
EXTT7=
EXTT8=
EXTT9=
EXTT10=
EXTT11=
PLAYORDER=
